<svg id="Layer_1" data-name="Layer 1" xmlns="http://www.w3.org/2000/svg" viewBox="0 0 796.22 789.85"><defs><style>.cls-1{fill:#f9f9f9;}.cls-2{fill:#fff;}.cls-3{fill:#eaeaea;}.cls-4{fill:#8fedfe;}.cls-5{fill:#c1c1c1;}</style></defs><title>White_mandark</title><rect class="cls-1" x="176.15" y="177.08" width="94.65" height="109.02"/><path class="cls-2" d="M186.78,460.05c-95-18.4-168.41-93.34-183.52-189.43-11.6-73.77,7.74-139.37,58-194.88,38-42,85.87-66.68,142.21-72.45,76.14-7.79,140.8,17,193.47,72.68l-23,31c-.86-.78-1.76-1.51-2.56-2.34C322.18,53.57,262.52,33.46,192.71,45.8,109.34,60.54,43.4,133.44,37.1,217.8c-5,67,18.31,122.83,69.66,166.26,28.63,24.23,62.07,38.25,99.44,42.58,10.12.41,20.25,1.18,30.36,1.13,6.76,0,13.51-1.24,20.26-1.92a37.11,37.11,0,0,0,4.47-.27c26.55-4.68,51.5-13.76,73.66-29.16,11-7.62,20.67-17.06,31-25.68l-.1.09,1-.7,10-11.2L399,326.56c.61-1,1.31-1.88,1.83-2.89a189.35,189.35,0,0,0,20.38-68.35c4-40.19-3.45-78-23-113.46l23.5-34c.49.87,1,1.74,1.49,2.59,32.39,53.51,42.18,111,29.17,172.06-3.58,16.75-10.59,32.77-16,49.13l-15.19,27.11L399,387.65A227.71,227.71,0,0,1,227.12,464Z" transform="translate(0 0.02)"/><path class="cls-2" d="M373.86,107l23-31c8.51-7.93,16.62-16.35,25.61-23.69C471.22,12.47,527.2-4.67,589.78,1.06c99.44,9.1,183.86,86.15,201.88,184.3,14.29,77.82-5,146.71-58.61,205-34.32,37.26-77.27,59.82-127.32,68.53-1.64.29-3.27.63-4.91.94Q591,442.93,581.13,426c6.61-.8,13.27-1.31,19.81-2.45,105.83-18.47,176.3-120.21,156.55-225.89-22.14-118.52-147.74-188.09-260-144-29.78,11.7-55.34,29.45-75.9,54.15l-23.5,34c-.76,1.28-1.58,2.52-2.26,3.85a188.43,188.43,0,0,0-20.65,74.88c-2.33,37.58,5.3,73,23.71,106L376.78,359l-16.57-29.13c-.63-1.54-1.23-3.09-1.89-4.62-24.54-57.57-26.54-115.93-5.25-174.67C358.58,135.47,366.85,121.47,373.86,107Z" transform="translate(0 0.02)"/><path class="cls-2" d="M581.18,426q9.86,16.9,19.69,33.81c13.74,30,21.36,61.5,21.73,94.57.7,61.25-19,115.08-60.18,160.49-38.79,42.81-87.34,67.56-144.79,73.7-117.14,12.52-225.12-67.53-248-183.3Q154.78,529.88,186.78,460L227.15,464c-.43.89-.82,1.82-1.3,2.68a192.56,192.56,0,0,0-2.07,185c40.86,76.82,129.37,117.09,213.32,97.64C526.69,728.55,590.28,647,587,555a192.13,192.13,0,0,0-27.41-93.21c-1.84-2.9-3.39-6-5.58-8.65-8.82-10.56-17.83-21-26.77-31.4-14.47-14.69-31.38-25.94-49.89-34.8-13.61-6.49-27.69-11.8-42.69-14.23l-13.66-14,15.19-27.11C497.08,343.8,545.26,375.49,581.18,426Z" transform="translate(0 0.02)"/><path class="cls-2" d="M206.12,426.64q53.36-76.08,144.35-94.84l9.74-2L376.78,359q-5.07,5.59-10.12,11.2l-1,.7.1-.09c-11.72,2.65-23.74,4.42-35.09,8.19a180.69,180.69,0,0,0-74,46.88c-6.75.68-13.5,1.89-20.26,1.92C226.37,427.8,216.24,427.05,206.12,426.64Z" transform="translate(0 0.02)"/><path class="cls-2" d="M559.63,461.8c-51.65-1.68-97.31-19.32-137.12-52-8.33-6.84-15.78-14.74-23.63-22.15L421,358.75l13.66,14c13.3,13.72,28.94,24.22,45.88,32.83,14.8,7.53,30.22,13.52,46.73,16.24,8.94,10.45,18,20.84,26.77,31.4C556.24,455.8,557.78,459,559.63,461.8Z" transform="translate(0 0.02)"/><path class="cls-2" d="M388.09,625.5c-.91,2.84-1.7,5-2.28,7.17-1.18,4.48-2.09,9-3.4,13.5-1.89,6.45-1.29,9.22,4.5,12.56,4.63,2.67,6.46,6.21,6.09,11.41-.5,7.12-.52,14.28-1.1,21.39-.26,3.15-1.8,5.54-5.77,5.52s-6.55-1.81-7.76-5.58A3.86,3.86,0,0,1,378,690c.71-5.46,1.24-11,2.3-16.37.66-3.37-1.11-3.9-3.48-3.7-8.68.76-9.19.7-10.42-7.67-1-6.66-1-13.45-1.74-20.16a6.35,6.35,0,0,0-2.1-4.15c-3.15-2.26-4-5.12-3.42-8.69,2.13-13.26,3.59-26.57,9.34-39.1,4.16-9,3.64-19.18,3.14-29-.14-2.61-1.08-4-4.07-3.43-7,1.3-12.6-.94-17.42-6.23s-11-5.68-17.37-2.85c-6.83,3-13.55,6.31-20.41,9.27-12.06,5.22-24.74,5.16-37.3,3s-24.73-2.29-36.89,1.93l-.46-1.39c2.26-1,4.51-3,6.79-3,10.09-.17,20.36-.89,30.24.63,19,3,35.75-2.63,52-11.35a44.56,44.56,0,0,1,10-4.06c4.64-1.19,8.71-.31,12.65,3.31s8.7,6,13.41,8.37c1.45.72,4.08-.19,5.76-1.1.5-.27-.26-3.13-.66-4.76-.94-3.82-2.5-7.55-2.92-11.42-.72-6.53-4.31-11.06-9.1-14.86a11,11,0,0,1-4.07-6.78c-.93-3.82-3.5-7.35-5.84-10.68-3.42-4.87-7.63-9.21-10.83-14.21-5.14-8-10.39-15.77-18.54-21.27-1.75-1.18-2.5-4.7-2.58-7.18,0-1.49,1.88-4,3.28-4.32,1.71-.34,4.87.66,5.55,2,6.38,12.79,17.7,20.93,27.72,30.3a11.49,11.49,0,0,1,2.4,3.18c2.49,4.87,5.56,8.55,11.54,9.73,2.69.54,4.93,3.68,7.21,5.81,1.57,1.47,2.58,3.69,4.34,4.75,1.52.92,4.72,1.55,5.43.75,1.19-1.35,1.93-4.31,1.26-5.92-3.75-9,3.86-21.84,13.67-22a11.3,11.3,0,0,1,7.13,2.7c5.23,4.77,6.26,16.21,2.55,22.24-1.17,1.89-3.21,3.65-.13,5.84,2.8,2,5.22,4.14,8.82,1.37,4.46-3.43,8.72-8.17,13.81-9.51,8.53-2.24,14.43-7.29,20.49-13,3.6-3.36,8-5.9,12.33-8.42,7-4.13,13.33-8.62,16-17,.46-1.48,4-2.84,6-2.74,1.84.09,3.71,2.13,5.26,3.62.3.3-.63,2.17-1.29,3.1a39.53,39.53,0,0,1-3.56,3.87l5,1.54c-10.17,4.3-17.54,11.72-24.85,19.24-2.67,2.74-5.4,5.42-8.12,8.11-4.3,4.23-9.81,7.27-11.79,13.7-.66,2.14-3,4.09-5,5.46-9.89,6.76-14.83,16.76-19.24,29,3.42.38,6.49,1.23,9.44.92,4.59-.47,9.07-1.91,13.64-2.64,11.94-1.92,23.44.1,34.88,3.69a173.15,173.15,0,0,0,70,7,87.83,87.83,0,0,1,11.47-.18c1.21,0,2.39.91,3.58,1.4a14.73,14.73,0,0,1-.14,1.49,29.45,29.45,0,0,1-4.43,1.16c-26,2.43-51.87,2.39-77.14-5.48-3.8-1.18-7.8-2.12-11.23-4-8.14-4.52-16.75-4-25.25-2.61a185.4,185.4,0,0,0-22.87,5.79,7.89,7.89,0,0,0-4.47,4.24,66.51,66.51,0,0,0-3,38.51c2,9.24,2.76,18.76,3.85,28.18.17,1.43-.54,4-1.45,4.35-4,1.38-3.93,4.47-4.07,7.67-.41,9.61-.46,19.25-1.41,28.8-.86,8.54-2.87,17-4.08,25.47-.52,3.66-1.18,7.7-.21,11.12,2.44,8.59,1.47,16.79-1.13,25-1.09,3.42-3.1,5.9-7.24,5.46s-6.74-3-6.71-6.78c.06-7.26-.6-15,1.79-21.63,3.1-8.52,2.93-16.73,2.64-25.31-.17-4.78.72-9.62.36-14.38-.38-5.15-1.66-10.23-2.55-15.34-.14-.82-.39-1.62-.46-2.44-.45-5.11-.51-10.28-1.4-15.31C391.37,635.8,389.66,631.13,388.09,625.5Z" transform="translate(0 0.02)"/><path class="cls-2" d="M721,221.8c-1.07,33-5.08,63.56-21.08,91.17-16.82,29-40.64,51.6-67.55,71.15-3.32,2.41-7,4.22-11,1.54-4.71-3.12-7.73-7-6.91-13.27.4-3.14-.57-6.46-1-9.69-.06-.47-.5-.92-.5-1.38.12-12.28.33-24.57.37-36.85,0-5-.29-9.91-.5-14.86,0-.82-.56-1.68-.43-2.45,3.37-18.63-2.16-37.93,4.46-56.44,1.33-3.73-.49-8.58-.82-12.93a58.29,58.29,0,0,1-.38-7.59c.17-3.14.29-6.43,1.33-9.34.7-1.94,2.73-4.4,4.55-4.77,5.27-1.06,8.65-2.9,9.56-8.93.4-2.64,3.38-5.16,5.66-7.2,13.5-12.06,24.89-25.69,32.59-42.21,2.32-5,4.74-9.89,7.35-14.7,4-7.28,17-7.77,20.84-.48C710.78,168,721.07,194.31,721,221.8Z" transform="translate(0 0.02)"/><path class="cls-2" d="M513,216.16c2.59,7.51,5.15,15,7.79,22.53,1,2.86,3,2.3,5.3,1.57,5.47-1.73,11.06-3.09,16.53-4.82,2.15-.68,4.63-1.49,6.08-3.05,8.37-9,16.49-18.24,24.66-27.43.87-1,2-2.09,2.19-3.28,1.77-9.49,8.75-14.92,15.46-20.73,2.23-1.92,3.43-5,5.22-7.46,1.11-1.55,2.19-3.34,3.73-4.3a44.27,44.27,0,0,1,7.73-3.38c3-1.11,5.5-.69,7.39,2.21s1.07,5.13-1.33,7.41c-5.79,5.5-12.16,10.63-16.89,16.95a162.62,162.62,0,0,0-16.69,27c-5.11,10.67-11.61,19.7-21.33,26.4-3,2.08-6,4.16-8.92,6.42-7.31,5.77-15.46,9.08-24.87,8.76-3.54-.12-5.78,1-7.5,4.42-.87,1.75-3.77,3.32-5.85,3.44a46.59,46.59,0,0,1-12.84-1.11c-1.33-.3-2.92-3.14-3-4.84-.09-5.26-2.33-8.13-7.52-8.77-.65-.08-1.55-.11-1.88-.52-1.41-1.79-2.64-3.72-3.94-5.59,2.21-.13,4.91-1.14,6.52-.23,6.48,3.66,13.1,3.18,19.89,1.83,4.08-.81,5.33-3.24,4.53-7.31a183.58,183.58,0,0,1-2.87-18.22c-.26-2.7.83-5.53,1.3-8.31Z" transform="translate(0 0.02)"/><path class="cls-2" d="M273.58,208.57c.74,11.39,1.06,22.83,2.37,34.15,1,8.31,3.15,16.49,5,24.67a9.64,9.64,0,0,0,2.7,4.64c2.61,2.41,4.24,4.73,4.56,8.68.4,4.9,3.87,3,7.11.83l3.9,13.47,6.49-2.68c-1.9,10.28,1.17,17,12.61,17.77l-.48,1.63-9.93,3.85L307.5,317c2.15.91,4.22,2.15,6.46,2.65,3,.68,6.24.61,9.3,1.24,1.26.26,2.31,1.51,3.46,2.31-1,.87-1.9,2.09-3.08,2.55-11.23,4.4-22.56,8.56-33.76,13-3.54,1.41-6.44,2.51-9.8-.71-3.7-3.55-7.1-2.67-11.19.84-6.34,5.45-6.44,7.39-13.54,1.07-3-2.63-6.23-1.29-9.07.85-1.76,1.5-3.58,2.92-5.48,4.24a8.48,8.48,0,0,1-4.64,1.5c-7.58-.66-15.13-1.63-22.69-2.48-.65-.07-1.6-.37-1.9-.06-5,5.2-8.75.22-12.58-1.82-6.27-3.34-8-3.53-13.1,1.06-2.18,1.94-3.54,1.48-5.49-.25a57.62,57.62,0,0,0-8-5.89c-4-2.49-7.44-1.47-10.51,2.16-1,1.2-3.49,2.42-4.74,2-14.23-4.91-28.35-10.14-42.48-15.31-.26-.09-.4-.51-1.42-1.93l23.84-5.41.42-1.32-10.27-5.13c3.52-2.73,8.21-4.7,9.87-8.13s.37-8.37.37-14a32.4,32.4,0,0,0,2.9,2.72c1.4.89,3.85,2.61,4.18,2.29a11.16,11.16,0,0,0,3-5.16c.5-2.16.12-4.52.12-7.31,1.88.48,3,.81,4,1,3.26.6,5.28-.38,5-4.11-.26-3,.4-5.38,3.38-7.1,1.34-.78,2.38-2.87,2.68-4.52,2.13-11.84,4.54-23.66,5.89-35.6,1.72-15.27,2.54-30.63,3.75-45.95a66.41,66.41,0,0,1,1.32,6.54c.51,5.11.6,10.27,1.32,15.34.19,1.33,2.06,2.42,3.16,3.63.84-1.22,2.27-2.37,2.41-3.67.89-8.06,1.52-16.15,2.16-24.24.54-6.83,1-13.66,1.48-20.49,1.44,4.15,1.8,8.49,2.67,12.73s2.25,8.24,3.41,12.35l1.35-.21,2.62-7.81c.61,6.07.56,12.09.63,18.1,0,3.24,2.13,5.22,5,4.84,1.39-.19,3.18-2.66,3.54-4.36.88-4.1,1-8.36,1.46-12.56l.87-.08q1.32,7.71,2.65,15.43l-6.57,3.93-5.84-.26,1.85,4.92-2.46,9c2.61-.46,4.28-1.06,3.48,2.87-.55,2.78,1.46,6,1.72,9.06.13,1.55-.63,4-1.77,4.67-4.39,2.51-9.19,4.29-13.66,6.66-1.93,1-3.44,2.85-5.48,4.6l3.64,2.18c-1.51,6.47-2.9,12.44-4.3,18.41l1.3.33,2.59-3.88.85.28-3.2,14.75,2.37.73c1.25-2.56,2.37-5.21,3.8-7.66a44,44,0,0,1,3.72-4.78c-1.33,4-1.91,8.43-4.15,11.79a160.33,160.33,0,0,1-15.09,19.16,45.26,45.26,0,0,1-12.64,10c-7.76,3.89-9.14,7.25-4.09,13.79-1,1.93-1.88,3.76-2.79,5.6l1.62,1.29,11.85-10.42-1.88,1.94c2.91,1.88,5.83,3.72,8.72,5.64,7.46,5,15.55,6.64,24.56,6.45,21.3-.45,42.63.3,63.92-.36,9.17-.29,18.83-1.76,23.39-12.11,4.29,1.47,5.32,8.52,11,7.12-.29-2.65-1.26-5.18-.67-7.28,2.35-8.35,1.15-10.53-7.29-13.45a19.21,19.21,0,0,1-7.64-5c-4.23-4.67-8-9.77-11.78-14.82-4.65-6.18-10-12-10.52-20.37,1.57,2.17,3.29,4.25,4.66,6.54,1.65,2.75,3,5.68,4.47,8.54l2.37-1q-2.58-9.3-5.14-18.58l.71-.31,3.69,4.76c.21-2.45-.7-4.37-1.19-6.4-.44-1.82-.27-3.79-.62-5.64-.54-2.87-1.29-5.7-2-8.54-2.93-5.63-8.6-8.21-15.18-9.44-1.21-.23-2.89-2.89-2.76-4.28.41-4.38,1.58-8.69,2.49-13.24l4.21,1.74a22.52,22.52,0,0,0-.91-2.36q-3.45-5.94-6.93-11.84c3.36.8,4.63-.94,4.69-4,.09-4.5-.19-9,.2-13.48.56-6.29,1.58-12.54,2.41-18.8,2.3,8.08,3.78,16,5.58,23.77.31,1.38,2,2.44,3,3.64,1-1.41,2.44-2.7,2.86-4.27s-.37-3.24-.49-4.89c-.21-2.79-.3-5.59-.44-8.39l1.63-.12c1.45,7.87,3,15.73,4.31,23.63C269.23,206.61,269.85,209,273.58,208.57Z" transform="translate(0 0.02)"/><path class="cls-3" d="M273.58,208.57c-3.7.44-4.32-2-4.81-4.86-1.33-7.9-2.86-15.76-4.31-23.63l-1.63.12c.14,2.8.23,5.6.44,8.39.12,1.65.88,3.41.49,4.89s-1.86,2.86-2.86,4.27c-1-1.2-2.74-2.26-3-3.64-1.8-7.81-3.28-15.69-5.58-23.77-.83,6.26-1.85,12.51-2.41,18.8-.39,4.46-.11,9-.2,13.48-.06,3-1.33,4.77-4.69,4-.07-1.25-.13-2.5-.2-3.75q-2.38-12.3-4.78-24.6h-.59l-1.87,19.46-6,5.16v-11.7l-1.18-.47-6.67,13-1.06-.21c-.33-2.89-.66-5.77-1-8.66q-.82-11.1-1.63-22.19l-.66.16q-2.73,11-5.47,22l-3.28,11L208.47,202q-1.35-7.72-2.65-15.43l-.87.08c-.44,4.2-.58,8.46-1.46,12.56-.36,1.7-2.15,4.17-3.54,4.36-2.9.38-5-1.6-5-4.84-.07-6,0-12-.63-18.1l-2.62,7.81-1.35.21c-1.16-4.11-2.55-8.18-3.41-12.35s-1.23-8.58-2.67-12.73c-.49,6.83-.94,13.66-1.48,20.49-.64,8.09-1.27,16.18-2.16,24.24-.14,1.3-1.57,2.45-2.41,3.67-1.1-1.21-3-2.3-3.16-3.63-.72-5.07-.81-10.23-1.32-15.34a66.41,66.41,0,0,0-1.32-6.54V176c.08-.41.15-.81.23-1.21.77-20,1.44-39.92,2.47-59.85.09-1.89,2.43-3.66,3.72-5.49-.27,2.62-.64,5.24-.79,7.87-.13,2.38,0,4.76,0,7.15h1.58c.93-2.81,1.85-5.62,2.78-8.43l1.29.19V127h.65l1.41-8,1.54.16,2.46,13,.93-.06,3.07-15.36,1.78.19v17.72l1.71.16,2-16.4,1.26-.06q1,6.51,1.9,13l1.26-.05c.73-3.81,1.46-7.62,2.45-12.72,1.58,3,2.41,4.5,3.39,6.31l5.34-8.39,1.7.74V130l1.11.14q1.26-6.59,2.53-13.17l1.58.06,3,4.69,3.17-5V131l1,.08c.7-2.81,1.39-5.63,2.09-8.44h.65c.47,3.14.93,6.28,1.4,9.42l.63.09,2.81-10.54.66.31q1,14.6,2.11,29.18h1.3q1.4-11.16,2.8-22.34l1.12.12c1,2.49,2,5,3,7.48l1-.21q1-7.19,2.06-14.36l.75.17,4.13,12.65,1.34-.29q.66-4.2,1.34-8.4l1.34-.3,3.66,7.54,5.35-10.64,4.28,16.26q.48,31.88,1,63.76C273.78,204.59,273.58,206.58,273.58,208.57Z" transform="translate(0 0.02)"/><path class="cls-2" d="M272.78,138.8l-4.2-16.38-5.35,10.64-3.66-7.54-1.34.3c-.45,2.8-.89,5.6-1.34,8.4l-1.34.29-4.13-12.65-.75-.17q-1,7.17-2.06,14.36l-1,.21c-1-2.49-2-5-3-7.48l-1.12-.12q-1.41,11.18-2.8,22.34h-1.3q-1-14.58-2.11-29.18l-.66-.31-2.82,10.57-.63-.09c-.47-3.14-.93-6.28-1.4-9.42h-.65c-.7,2.81-1.39,5.63-2.09,8.44l-1-.08v-14.3c-1.59,2.53-2.32,3.68-3.17,5l-3-4.69-1.58-.06q-1.26,6.59-2.53,13.17l-1.11-.14V117.27l-1.7-.74L209.58,125c-1-1.81-1.81-3.35-3.39-6.31-1,5.1-1.72,8.91-2.45,12.72h-1.26q-.94-6.51-1.9-13l-1.26.06-2,16.4-1.71-.16V117l-1.83-.14-3.09,15.41-.93.06-2.53-13.05-1.54-.16-1.41,8h-.65V116.23l-1.29-.19c-.93,2.81-1.85,5.62-2.78,8.43H178c0-2.39-.1-4.77,0-7.15.15-2.63.52-5.25.79-7.87,9.45-3.48,19-6.78,28.32-10.5,8.51-3.39,16.48-2.46,25.07.33,10.37,3.37,21.25,5.2,31.93,7.54,5.8,1.27,7.3,3,7.73,9,.46,6.44,1.17,12.87,1.63,19.31A14.31,14.31,0,0,1,272.78,138.8Z" transform="translate(0 0.02)"/><path class="cls-4" d="M172.63,174.74c-.08.4-.15.8-.23,1.21C172.48,175.54,172.58,175.14,172.63,174.74Z" transform="translate(0 0.02)"/><path class="cls-5" d="M257.05,266.7c.51,8.33,5.87,14.19,10.52,20.37,3.79,5.05,7.55,10.15,11.78,14.82a19.21,19.21,0,0,0,7.64,5c8.44,2.92,9.64,5.1,7.29,13.45-.59,2.1.38,4.63.67,7.28-5.7,1.4-6.73-5.65-11-7.12-4.56,10.35-14.22,11.82-23.39,12.11-21.29.66-42.62-.09-63.92.36-9,.19-17.1-1.5-24.56-6.45-2.89-1.92-5.81-3.76-8.72-5.64l1.88-1.94-11.85,10.42-1.61-1.31c.91-1.84,1.83-3.67,2.79-5.6-5-6.54-3.67-9.9,4.09-13.79a45.26,45.26,0,0,0,12.64-10,160.33,160.33,0,0,0,15.09-19.16c2.24-3.36,2.82-7.83,4.15-11.79.7-4.95,3.74-8.23,7.73-10.81,2.09-1.35,4-2.06,4.6,1.49.14.82.84,1.54,1.83,3.28l3.7-9c5.69,3,5.79,2.91,5.61-2.91,0-.48-.13-1.1.11-1.42,3.55-4.61,1.77-8.88-.54-13.28a8.55,8.55,0,0,1-.86-4.77c.51-4.42,1.26-8.83,2.13-13.2s3.93-6.76,8.34-7.19,8.24,1.27,9.31,5.68c1.25,5.22,1.49,10.69,2.17,16-1,1-2.57,1.9-2.74,3-.38,2.36,0,4.84.07,7.28,1,4.88,2,9.76,3.08,15.22l5.62-3.81c1.62,3.66,3.06,6.9,5.07,11.45.15-2.51.14-3.5.29-4.47s.45-2.18.7-3.35C255.85,261.53,255.85,261.53,257.05,266.7Zm-13.73,13.37c-.26.39-.88.88-.92,1.41-.6,8.52-1.24,17-1.49,25.58,0,.89,2.51,2.7,3.78,2.63,7.79-.4,15.55-1.21,22.13-1.78Zm-37.42-2.55L183,305.58c6,.41,13,.8,19.88,1.39,3.56.31,5.51-1.32,5.7-4.62C209.09,294.13,209.37,285.9,205.9,277.52Z" transform="translate(0 0.02)"/><path class="cls-3" d="M201.78,205.8c2.35,4.7-1.43,4.16-4,4.66-.61-1.64-1.22-3.28-1.85-4.92Z" transform="translate(0 0.02)"/><path class="cls-3" d="M221.67,194.89,217.58,198l-3.64-3.1q2.73-11,5.47-22l.66-.16Q220.85,183.8,221.67,194.89Z" transform="translate(0 0.02)"/><path class="cls-3" d="M244.78,202.8l-4.6-.28v-5.61l-2.54.75,1.77-19.46H240Q242.36,190.55,244.78,202.8Z" transform="translate(0 0.02)"/><path class="cls-2" d="M243.32,280.07l23.46,27.84c-6.58.57-14.34,1.38-22.13,1.78-1.27.07-3.8-1.74-3.78-2.63.25-8.53.89-17.06,1.49-25.58C242.44,281,243.06,280.46,243.32,280.07Z" transform="translate(0 0.02)"/><path class="cls-2" d="M205.9,277.52c3.47,8.38,3.19,16.61,2.72,24.83-.19,3.3-2.14,4.93-5.7,4.62-6.92-.59-13.86-1-19.88-1.39Z" transform="translate(0 0.02)"/><path class="cls-2" d="M234.64,231.57c1.06,3.94,2.7,8-2.67,10.31-.07-2.44-.45-4.92-.07-7.28C232.07,233.47,233.68,232.57,234.64,231.57Z" transform="translate(0 0.02)"/></svg>